<mxfile host="app.diagrams.net" agent="Mozilla/5.0 (Windows NT 10.0; Win64; x64) AppleWebKit/537.36 (KHTML, like Gecko) Chrome/127.0.0.0 Safari/537.36" version="24.7.6">
  <diagram name="Seite-1" id="WPvJSfMEdoKwpKkdZCvo">
    <mxGraphModel dx="1295" dy="1440" grid="1" gridSize="10" guides="1" tooltips="1" connect="1" arrows="1" fold="1" page="1" pageScale="1" pageWidth="827" pageHeight="1169" math="0" shadow="0">
      <root>
        <mxCell id="0" />
        <mxCell id="1" parent="0" />
        <mxCell id="TBi7T364Qu-KwWD05ct5-2" style="edgeStyle=orthogonalEdgeStyle;rounded=0;orthogonalLoop=1;jettySize=auto;html=1;exitX=1;exitY=0.5;exitDx=0;exitDy=0;" edge="1" parent="1" source="TBi7T364Qu-KwWD05ct5-7" target="TBi7T364Qu-KwWD05ct5-5">
          <mxGeometry relative="1" as="geometry" />
        </mxCell>
        <mxCell id="TBi7T364Qu-KwWD05ct5-3" value="Starting&lt;div&gt;&lt;div style=&quot;text-align: left;&quot;&gt;&lt;span style=&quot;font-size: 10px; background-color: initial;&quot;&gt;entry: raise eProcessMessage(&quot;Job started...&lt;/span&gt;&lt;span style=&quot;font-size: 10px; background-color: initial;&quot;&gt;&quot;)&lt;/span&gt;&lt;/div&gt;&lt;/div&gt;" style="rounded=1;whiteSpace=wrap;html=1;fillColor=#d5e8d4;strokeColor=#82b366;" vertex="1" parent="1">
          <mxGeometry x="-650" y="-384" width="230" height="70" as="geometry" />
        </mxCell>
        <mxCell id="TBi7T364Qu-KwWD05ct5-5" value="JobDone&lt;br&gt;&lt;div style=&quot;text-align: left;&quot;&gt;&lt;span style=&quot;font-size: 10px; background-color: initial;&quot;&gt;&amp;nbsp; entry: raise eProcessMessage(&quot;Job done...&lt;/span&gt;&lt;span style=&quot;font-size: 10px; background-color: initial;&quot;&gt;&quot;),&lt;/span&gt;&lt;/div&gt;&lt;font style=&quot;font-size: 10px;&quot;&gt;&lt;div style=&quot;text-align: left;&quot;&gt;&lt;span style=&quot;background-color: initial;&quot;&gt;&lt;span style=&quot;white-space: pre;&quot;&gt;&#x9;&lt;/span&gt;&amp;nbsp; &amp;nbsp; raise eJobDone&lt;/span&gt;&lt;/div&gt;&lt;/font&gt;" style="rounded=1;whiteSpace=wrap;html=1;fillColor=#f8cecc;strokeColor=#b85450;" vertex="1" parent="1">
          <mxGeometry x="100" y="-389.5" width="220" height="81" as="geometry" />
        </mxCell>
        <mxCell id="TBi7T364Qu-KwWD05ct5-6" value="" style="edgeStyle=orthogonalEdgeStyle;rounded=0;orthogonalLoop=1;jettySize=auto;html=1;exitX=1;exitY=0.5;exitDx=0;exitDy=0;endArrow=none;endFill=0;" edge="1" parent="1" source="TBi7T364Qu-KwWD05ct5-9" target="TBi7T364Qu-KwWD05ct5-7">
          <mxGeometry relative="1" as="geometry">
            <mxPoint x="-200" y="-350" as="sourcePoint" />
            <mxPoint x="-6" y="-350" as="targetPoint" />
          </mxGeometry>
        </mxCell>
        <mxCell id="TBi7T364Qu-KwWD05ct5-7" value="&lt;span style=&quot;font-size: 10px;&quot;&gt;eCheckJobDone&lt;br&gt;: $productsCompleted &amp;gt;= $totalProducts &lt;br&gt;-&amp;gt;&lt;/span&gt;" style="rounded=0;whiteSpace=wrap;html=1;fillColor=#f5f5f5;fontColor=#333333;strokeColor=#666666;" vertex="1" parent="1">
          <mxGeometry x="-130" y="-373" width="200" height="46" as="geometry" />
        </mxCell>
        <mxCell id="TBi7T364Qu-KwWD05ct5-8" value="" style="edgeStyle=orthogonalEdgeStyle;rounded=0;orthogonalLoop=1;jettySize=auto;html=1;exitX=1;exitY=0.5;exitDx=0;exitDy=0;endArrow=none;endFill=0;" edge="1" parent="1" source="TBi7T364Qu-KwWD05ct5-3" target="TBi7T364Qu-KwWD05ct5-9">
          <mxGeometry relative="1" as="geometry">
            <mxPoint x="-324" y="-350" as="sourcePoint" />
            <mxPoint x="-76" y="-350" as="targetPoint" />
          </mxGeometry>
        </mxCell>
        <mxCell id="TBi7T364Qu-KwWD05ct5-9" value="&lt;font style=&quot;&quot;&gt;&lt;font style=&quot;font-size: 12px;&quot;&gt;Running&lt;/font&gt;&lt;br&gt;&lt;/font&gt;" style="rounded=1;whiteSpace=wrap;html=1;fillColor=#dae8fc;strokeColor=#6c8ebf;" vertex="1" parent="1">
          <mxGeometry x="-316" y="-380" width="170" height="60" as="geometry" />
        </mxCell>
        <mxCell id="TBi7T364Qu-KwWD05ct5-10" value="&lt;span style=&quot;font-size: 10px;&quot;&gt;: -&amp;gt;&lt;/span&gt;" style="rounded=0;whiteSpace=wrap;html=1;fillColor=#f5f5f5;fontColor=#333333;strokeColor=#666666;" vertex="1" parent="1">
          <mxGeometry x="-396" y="-365" width="42" height="30" as="geometry" />
        </mxCell>
        <mxCell id="TBi7T364Qu-KwWD05ct5-11" value="&lt;div style=&quot;text-align: left;&quot;&gt;&lt;span style=&quot;background-color: initial;&quot;&gt;&amp;nbsp;eProductComplete : -&amp;gt; assign $productsCompleted = $productsCompleted + 1, &lt;span style=&quot;white-space: pre;&quot;&gt;&#x9;&lt;/span&gt;&lt;span style=&quot;white-space: pre;&quot;&gt;&#x9;&lt;/span&gt;&lt;span style=&quot;white-space: pre;&quot;&gt;&#x9;&lt;/span&gt;&lt;span style=&quot;white-space: pre;&quot;&gt;&#x9;&lt;/span&gt;&amp;nbsp; &amp;nbsp; &amp;nbsp;raise eCheckJobDone&lt;/span&gt;&lt;/div&gt;" style="rounded=0;whiteSpace=wrap;html=1;fillColor=#f5f5f5;fontColor=#333333;strokeColor=#666666;fontSize=10;" vertex="1" parent="1">
          <mxGeometry x="-410" y="-281" width="360" height="35" as="geometry" />
        </mxCell>
        <mxCell id="TBi7T364Qu-KwWD05ct5-16" style="edgeStyle=orthogonalEdgeStyle;rounded=0;orthogonalLoop=1;jettySize=auto;html=1;exitX=0.25;exitY=1;exitDx=0;exitDy=0;entryX=0.38;entryY=0.016;entryDx=0;entryDy=0;entryPerimeter=0;endArrow=none;endFill=0;" edge="1" parent="1" source="TBi7T364Qu-KwWD05ct5-9" target="TBi7T364Qu-KwWD05ct5-11">
          <mxGeometry relative="1" as="geometry">
            <mxPoint x="-274" y="-279" as="targetPoint" />
          </mxGeometry>
        </mxCell>
        <mxCell id="TBi7T364Qu-KwWD05ct5-18" style="edgeStyle=orthogonalEdgeStyle;rounded=0;orthogonalLoop=1;jettySize=auto;html=1;entryX=0.617;entryY=-0.017;entryDx=0;entryDy=0;entryPerimeter=0;startArrow=classic;startFill=1;endArrow=none;endFill=0;" edge="1" parent="1" target="TBi7T364Qu-KwWD05ct5-11">
          <mxGeometry relative="1" as="geometry">
            <mxPoint x="-188" y="-320" as="sourcePoint" />
          </mxGeometry>
        </mxCell>
      </root>
    </mxGraphModel>
  </diagram>
</mxfile>
